<?xml version="1.0" standalone="no"?>
<!DOCTYPE svg PUBLIC "-//W3C//DTD SVG 20010904//EN"
 "http://www.w3.org/TR/2001/REC-SVG-20010904/DTD/svg10.dtd">
<svg version="1.0" xmlns="http://www.w3.org/2000/svg"
 width="1024.000000pt" height="1024.000000pt" viewBox="0 0 1024.000000 1024.000000"
 preserveAspectRatio="xMidYMid meet">

<g transform="translate(0.000000,1024.000000) scale(0.100000,-0.100000)"
fill="#000000" stroke="none">
<path d="M4676 7846 c-60 -22 -108 -67 -147 -137 -68 -123 -720 -1368 -929
-1774 -62 -121 -123 -238 -135 -260 -80 -142 -740 -1427 -1065 -2074 -239
-476 -248 -500 -220 -585 35 -106 149 -160 256 -122 36 12 356 179 1674 873
412 217 1486 781 1531 804 13 6 33 -35 117 -234 55 -133 204 -489 330 -790
127 -301 242 -565 256 -586 15 -21 44 -47 65 -59 36 -20 52 -22 229 -22 139 0
192 3 200 13 13 15 -356 944 -697 1756 -33 80 -58 147 -55 150 2 3 269 143
592 312 l587 306 8 -26 c4 -14 16 -109 27 -211 18 -175 20 -186 45 -207 55
-48 102 -24 154 76 35 69 218 446 358 741 62 131 66 172 19 219 l-26 26 -548
3 c-507 2 -548 1 -559 -15 -17 -23 -16 -64 2 -90 9 -12 60 -47 113 -77 54 -31
106 -62 117 -70 17 -12 -30 -38 -516 -278 -293 -145 -538 -265 -544 -266 -10
-1 -43 78 -159 378 -64 163 -704 1828 -773 2009 -20 51 -50 112 -67 135 -59
76 -160 111 -240 82z m41 -969 c105 -274 716 -1765 749 -1829 l14 -27 -83 -44
c-45 -24 -237 -124 -427 -222 -190 -98 -417 -215 -505 -260 -611 -315 -1427
-726 -1432 -722 -5 6 93 200 562 1107 282 544 402 774 637 1225 255 487 404
773 423 812 11 23 22 42 25 42 3 1 19 -36 37 -82z"/>
</g>
</svg>
