<?xml version="1.0" standalone="no"?>
<!DOCTYPE svg PUBLIC "-//W3C//DTD SVG 20010904//EN"
 "http://www.w3.org/TR/2001/REC-SVG-20010904/DTD/svg10.dtd">
<svg version="1.0" xmlns="http://www.w3.org/2000/svg"
 width="1024.000000pt" height="1536.000000pt" viewBox="0 0 1024.000000 1536.000000"
 preserveAspectRatio="xMidYMid meet">

<g transform="translate(0.000000,1536.000000) scale(0.100000,-0.100000)"
fill="#000000" stroke="none">
<path d="M5214 12057 c-12 -7 -75 -82 -141 -167 -112 -147 -521 -682 -666
-873 -72 -94 -80 -122 -52 -177 30 -58 44 -60 375 -60 l300 0 0 -905 0 -904
-72 -80 c-40 -44 -124 -134 -185 -200 l-113 -120 0 -1355 c0 -745 -3 -1357 -8
-1360 -6 -3 -800 430 -955 521 l-37 22 0 488 0 488 68 35 c350 179 347 677 -5
852 -185 92 -397 65 -545 -70 -168 -154 -206 -378 -101 -587 36 -70 135 -165
210 -201 l62 -29 0 -398 1 -399 -82 45 c-205 112 -260 145 -317 189 -124 97
-224 252 -273 423 l-23 80 0 1025 0 1025 31 88 c43 120 86 188 174 278 118
119 267 194 436 219 40 5 346 10 727 10 l657 0 0 205 0 204 -674 -4 c-713 -4
-763 -7 -936 -55 -41 -12 -117 -41 -167 -65 -292 -138 -504 -377 -597 -675
-55 -173 -56 -193 -56 -1235 0 -613 4 -991 11 -1045 45 -364 230 -666 529
-864 36 -24 205 -121 375 -216 1263 -704 1707 -949 1755 -968 117 -46 232 -53
354 -22 91 23 160 57 436 212 113 63 453 254 755 423 883 495 936 525 1015
579 41 28 113 89 160 136 192 191 299 414 345 715 12 84 15 257 15 1070 0
1055 -1 1069 -57 1240 -132 406 -495 692 -954 755 -49 7 -299 13 -611 15
l-528 5 0 -205 0 -204 558 -3 c539 -4 560 -5 637 -26 274 -77 454 -246 527
-497 l23 -80 0 -1010 0 -1010 -23 -85 c-60 -227 -194 -406 -388 -522 -198
-116 -1968 -1108 -2003 -1121 -64 -24 -61 -58 -61 699 l0 684 313 0 312 0 34
-70 c61 -129 177 -229 309 -270 87 -27 217 -27 304 0 211 65 358 263 358 485
0 144 -46 251 -155 360 -81 82 -152 120 -266 143 -203 42 -427 -61 -530 -243
l-31 -55 -324 0 -324 0 0 536 0 537 103 106 c56 58 142 147 190 198 l87 92 2
983 3 983 305 5 c244 4 309 8 327 20 55 36 63 118 17 180 -16 21 -97 128 -180
237 -84 109 -258 338 -388 508 -130 171 -249 318 -264 327 -31 21 -78 23 -108
5z m-1621 -4092 c69 -51 85 -161 34 -229 -77 -100 -227 -79 -272 38 -28 73 0
154 67 197 42 26 131 23 171 -6z m2710 -669 c44 -18 95 -78 103 -121 21 -115
-52 -205 -166 -205 -98 0 -161 59 -167 157 -5 75 23 127 86 160 50 26 97 29
144 9z"/>
<path d="M6646 8823 l4 -828 200 -3 200 -2 0 830 0 830 -204 0 -204 0 4 -827z"/>
<path d="M3804 9621 c-159 -45 -289 -172 -346 -339 -17 -52 -23 -88 -22 -162
0 -119 26 -201 94 -298 55 -78 116 -127 215 -174 58 -27 82 -32 167 -36 61 -3
122 0 156 8 243 53 417 284 398 530 -10 136 -61 247 -155 340 -133 130 -331
181 -507 131z m226 -346 c89 -47 122 -140 81 -231 -58 -128 -241 -137 -309
-15 -27 48 -31 124 -9 167 46 88 152 124 237 79z"/>
<path d="M5980 8630 l0 -640 203 2 202 3 3 638 2 637 -205 0 -205 0 0 -640z"/>
</g>
</svg>
